<?xml version="1.0" encoding="utf-8"?>
<!-- Generator: Adobe Illustrator 28.1.0, SVG Export Plug-In . SVG Version: 6.00 Build 0)  -->
<svg version="1.1" xmlns="http://www.w3.org/2000/svg" xmlns:xlink="http://www.w3.org/1999/xlink" x="0px" y="0px"
	 viewBox="0 0 1080 1080" style="enable-background:new 0 0 1080 1080;" xml:space="preserve">
<style type="text/css">
	
		.st0{clip-path:url(#SVGID_00000114073332596023563160000013601426956834938244_);fill-rule:evenodd;clip-rule:evenodd;fill:#53C8F1;}
	
		.st1{clip-path:url(#SVGID_00000114073332596023563160000013601426956834938244_);fill-rule:evenodd;clip-rule:evenodd;fill:#50C8F0;}
	
		.st2{clip-path:url(#SVGID_00000114073332596023563160000013601426956834938244_);fill-rule:evenodd;clip-rule:evenodd;fill:#4FC8F1;}
	
		.st3{clip-path:url(#SVGID_00000114073332596023563160000013601426956834938244_);fill-rule:evenodd;clip-rule:evenodd;fill:#4CC7F0;}
	
		.st4{clip-path:url(#SVGID_00000114073332596023563160000013601426956834938244_);fill-rule:evenodd;clip-rule:evenodd;fill:#4AC7F0;}
	
		.st5{clip-path:url(#SVGID_00000114073332596023563160000013601426956834938244_);fill-rule:evenodd;clip-rule:evenodd;fill:#48C7F0;}
	
		.st6{clip-path:url(#SVGID_00000114073332596023563160000013601426956834938244_);fill-rule:evenodd;clip-rule:evenodd;fill:#44C6F1;}
	
		.st7{clip-path:url(#SVGID_00000114073332596023563160000013601426956834938244_);fill-rule:evenodd;clip-rule:evenodd;fill:#44C6F0;}
	
		.st8{clip-path:url(#SVGID_00000114073332596023563160000013601426956834938244_);fill-rule:evenodd;clip-rule:evenodd;fill:#41C6F1;}
	
		.st9{clip-path:url(#SVGID_00000114073332596023563160000013601426956834938244_);fill-rule:evenodd;clip-rule:evenodd;fill:#3FC6F1;}
	
		.st10{clip-path:url(#SVGID_00000114073332596023563160000013601426956834938244_);fill-rule:evenodd;clip-rule:evenodd;fill:#3CC5EF;}
	
		.st11{clip-path:url(#SVGID_00000114073332596023563160000013601426956834938244_);fill-rule:evenodd;clip-rule:evenodd;fill:#3BC5F1;}
	
		.st12{clip-path:url(#SVGID_00000114073332596023563160000013601426956834938244_);fill-rule:evenodd;clip-rule:evenodd;fill:#38C5F0;}
	
		.st13{clip-path:url(#SVGID_00000114073332596023563160000013601426956834938244_);fill-rule:evenodd;clip-rule:evenodd;fill:#36C4F0;}
	
		.st14{clip-path:url(#SVGID_00000114073332596023563160000013601426956834938244_);fill-rule:evenodd;clip-rule:evenodd;fill:#37C2F2;}
	
		.st15{clip-path:url(#SVGID_00000114073332596023563160000013601426956834938244_);fill-rule:evenodd;clip-rule:evenodd;fill:#37C4EF;}
	
		.st16{clip-path:url(#SVGID_00000114073332596023563160000013601426956834938244_);fill-rule:evenodd;clip-rule:evenodd;fill:#3AC1EE;}
	
		.st17{clip-path:url(#SVGID_00000114073332596023563160000013601426956834938244_);fill-rule:evenodd;clip-rule:evenodd;fill:#35C2EE;}
	
		.st18{clip-path:url(#SVGID_00000114073332596023563160000013601426956834938244_);fill-rule:evenodd;clip-rule:evenodd;fill:#36C0ED;}
	
		.st19{clip-path:url(#SVGID_00000114073332596023563160000013601426956834938244_);fill-rule:evenodd;clip-rule:evenodd;fill:#34C0ED;}
	
		.st20{clip-path:url(#SVGID_00000114073332596023563160000013601426956834938244_);fill-rule:evenodd;clip-rule:evenodd;fill:#32BFEC;}
	
		.st21{clip-path:url(#SVGID_00000114073332596023563160000013601426956834938244_);fill-rule:evenodd;clip-rule:evenodd;fill:#34BEEC;}
	
		.st22{clip-path:url(#SVGID_00000114073332596023563160000013601426956834938244_);fill-rule:evenodd;clip-rule:evenodd;fill:#34BEEB;}
	
		.st23{clip-path:url(#SVGID_00000114073332596023563160000013601426956834938244_);fill-rule:evenodd;clip-rule:evenodd;fill:#35BDEB;}
	
		.st24{clip-path:url(#SVGID_00000114073332596023563160000013601426956834938244_);fill-rule:evenodd;clip-rule:evenodd;fill:#36BDEA;}
	
		.st25{clip-path:url(#SVGID_00000114073332596023563160000013601426956834938244_);fill-rule:evenodd;clip-rule:evenodd;fill:#33BBE9;}
	
		.st26{clip-path:url(#SVGID_00000114073332596023563160000013601426956834938244_);fill-rule:evenodd;clip-rule:evenodd;fill:#33BAEA;}
	
		.st27{clip-path:url(#SVGID_00000114073332596023563160000013601426956834938244_);fill-rule:evenodd;clip-rule:evenodd;fill:#32BAE8;}
	
		.st28{clip-path:url(#SVGID_00000114073332596023563160000013601426956834938244_);fill-rule:evenodd;clip-rule:evenodd;fill:#32B8E7;}
	
		.st29{clip-path:url(#SVGID_00000114073332596023563160000013601426956834938244_);fill-rule:evenodd;clip-rule:evenodd;fill:#33B7E6;}
	
		.st30{clip-path:url(#SVGID_00000114073332596023563160000013601426956834938244_);fill-rule:evenodd;clip-rule:evenodd;fill:#30B6E5;}
	
		.st31{clip-path:url(#SVGID_00000114073332596023563160000013601426956834938244_);fill-rule:evenodd;clip-rule:evenodd;fill:#31B5E5;}
	
		.st32{clip-path:url(#SVGID_00000114073332596023563160000013601426956834938244_);fill-rule:evenodd;clip-rule:evenodd;fill:#2EB5E4;}
	
		.st33{clip-path:url(#SVGID_00000114073332596023563160000013601426956834938244_);fill-rule:evenodd;clip-rule:evenodd;fill:#2FB4E4;}
	
		.st34{clip-path:url(#SVGID_00000114073332596023563160000013601426956834938244_);fill-rule:evenodd;clip-rule:evenodd;fill:#2FB3E3;}
	
		.st35{clip-path:url(#SVGID_00000114073332596023563160000013601426956834938244_);fill-rule:evenodd;clip-rule:evenodd;fill:#30B2E2;}
	
		.st36{clip-path:url(#SVGID_00000114073332596023563160000013601426956834938244_);fill-rule:evenodd;clip-rule:evenodd;fill:#2CB0E1;}
	
		.st37{clip-path:url(#SVGID_00000114073332596023563160000013601426956834938244_);fill-rule:evenodd;clip-rule:evenodd;fill:#2AB0E1;}
	
		.st38{clip-path:url(#SVGID_00000114073332596023563160000013601426956834938244_);fill-rule:evenodd;clip-rule:evenodd;fill:#28AFE0;}
	
		.st39{clip-path:url(#SVGID_00000114073332596023563160000013601426956834938244_);fill-rule:evenodd;clip-rule:evenodd;fill:#2AAEE0;}
	
		.st40{clip-path:url(#SVGID_00000114073332596023563160000013601426956834938244_);fill-rule:evenodd;clip-rule:evenodd;fill:#2CADDF;}
	
		.st41{clip-path:url(#SVGID_00000114073332596023563160000013601426956834938244_);fill-rule:evenodd;clip-rule:evenodd;fill:#26ACDF;}
	
		.st42{clip-path:url(#SVGID_00000114073332596023563160000013601426956834938244_);fill-rule:evenodd;clip-rule:evenodd;fill:#28ACDD;}
	
		.st43{clip-path:url(#SVGID_00000114073332596023563160000013601426956834938244_);fill-rule:evenodd;clip-rule:evenodd;fill:#25ABDE;}
	
		.st44{clip-path:url(#SVGID_00000114073332596023563160000013601426956834938244_);fill-rule:evenodd;clip-rule:evenodd;fill:#28AADD;}
	
		.st45{clip-path:url(#SVGID_00000114073332596023563160000013601426956834938244_);fill-rule:evenodd;clip-rule:evenodd;fill:#25AADD;}
	
		.st46{clip-path:url(#SVGID_00000114073332596023563160000013601426956834938244_);fill-rule:evenodd;clip-rule:evenodd;fill:#27A8DC;}
	
		.st47{clip-path:url(#SVGID_00000114073332596023563160000013601426956834938244_);fill-rule:evenodd;clip-rule:evenodd;fill:#29A7DB;}
	
		.st48{clip-path:url(#SVGID_00000114073332596023563160000013601426956834938244_);fill-rule:evenodd;clip-rule:evenodd;fill:#29A8DA;}
	
		.st49{clip-path:url(#SVGID_00000114073332596023563160000013601426956834938244_);fill-rule:evenodd;clip-rule:evenodd;fill:#26A5DA;}
	
		.st50{clip-path:url(#SVGID_00000114073332596023563160000013601426956834938244_);fill-rule:evenodd;clip-rule:evenodd;fill:#27A5DA;}
	
		.st51{clip-path:url(#SVGID_00000114073332596023563160000013601426956834938244_);fill-rule:evenodd;clip-rule:evenodd;fill:#26A4D9;}
	
		.st52{clip-path:url(#SVGID_00000114073332596023563160000013601426956834938244_);fill-rule:evenodd;clip-rule:evenodd;fill:#28A4D7;}
	
		.st53{clip-path:url(#SVGID_00000114073332596023563160000013601426956834938244_);fill-rule:evenodd;clip-rule:evenodd;fill:#24A3D8;}
	
		.st54{clip-path:url(#SVGID_00000114073332596023563160000013601426956834938244_);fill-rule:evenodd;clip-rule:evenodd;fill:#26A2D8;}
	
		.st55{clip-path:url(#SVGID_00000114073332596023563160000013601426956834938244_);fill-rule:evenodd;clip-rule:evenodd;fill:#29A1D7;}
	
		.st56{clip-path:url(#SVGID_00000114073332596023563160000013601426956834938244_);fill-rule:evenodd;clip-rule:evenodd;fill:#2AA0D6;}
	
		.st57{clip-path:url(#SVGID_00000114073332596023563160000013601426956834938244_);fill-rule:evenodd;clip-rule:evenodd;fill:#25A0D5;}
	
		.st58{clip-path:url(#SVGID_00000114073332596023563160000013601426956834938244_);fill-rule:evenodd;clip-rule:evenodd;fill:#269FD5;}
	
		.st59{clip-path:url(#SVGID_00000114073332596023563160000013601426956834938244_);fill-rule:evenodd;clip-rule:evenodd;fill:#279FD4;}
	
		.st60{clip-path:url(#SVGID_00000114073332596023563160000013601426956834938244_);fill-rule:evenodd;clip-rule:evenodd;fill:#269ED3;}
	
		.st61{clip-path:url(#SVGID_00000114073332596023563160000013601426956834938244_);fill-rule:evenodd;clip-rule:evenodd;fill:#239DD3;}
	
		.st62{clip-path:url(#SVGID_00000114073332596023563160000013601426956834938244_);fill-rule:evenodd;clip-rule:evenodd;fill:#249DD2;}
	
		.st63{clip-path:url(#SVGID_00000114073332596023563160000013601426956834938244_);fill-rule:evenodd;clip-rule:evenodd;fill:#279CD2;}
	
		.st64{clip-path:url(#SVGID_00000114073332596023563160000013601426956834938244_);fill-rule:evenodd;clip-rule:evenodd;fill:#289BD2;}
	
		.st65{clip-path:url(#SVGID_00000114073332596023563160000013601426956834938244_);fill-rule:evenodd;clip-rule:evenodd;fill:#219BD1;}
	
		.st66{clip-path:url(#SVGID_00000114073332596023563160000013601426956834938244_);fill-rule:evenodd;clip-rule:evenodd;fill:#229BD1;}
	
		.st67{clip-path:url(#SVGID_00000114073332596023563160000013601426956834938244_);fill-rule:evenodd;clip-rule:evenodd;fill:#2299D0;}
	
		.st68{clip-path:url(#SVGID_00000114073332596023563160000013601426956834938244_);fill-rule:evenodd;clip-rule:evenodd;fill:#2399D0;}
	
		.st69{clip-path:url(#SVGID_00000114073332596023563160000013601426956834938244_);fill-rule:evenodd;clip-rule:evenodd;fill:#2098D0;}
	
		.st70{clip-path:url(#SVGID_00000114073332596023563160000013601426956834938244_);fill-rule:evenodd;clip-rule:evenodd;fill:#2397CE;}
	
		.st71{clip-path:url(#SVGID_00000114073332596023563160000013601426956834938244_);fill-rule:evenodd;clip-rule:evenodd;fill:#2096CD;}
	
		.st72{clip-path:url(#SVGID_00000114073332596023563160000013601426956834938244_);fill-rule:evenodd;clip-rule:evenodd;fill:#1F96CD;}
	
		.st73{clip-path:url(#SVGID_00000114073332596023563160000013601426956834938244_);fill-rule:evenodd;clip-rule:evenodd;fill:#1C96CD;}
	
		.st74{clip-path:url(#SVGID_00000114073332596023563160000013601426956834938244_);fill-rule:evenodd;clip-rule:evenodd;fill:#2094CC;}
	
		.st75{clip-path:url(#SVGID_00000114073332596023563160000013601426956834938244_);fill-rule:evenodd;clip-rule:evenodd;fill:#1E93CB;}
	
		.st76{clip-path:url(#SVGID_00000114073332596023563160000013601426956834938244_);fill-rule:evenodd;clip-rule:evenodd;fill:#2192CA;}
	
		.st77{clip-path:url(#SVGID_00000114073332596023563160000013601426956834938244_);fill-rule:evenodd;clip-rule:evenodd;fill:#1D91C9;}
	
		.st78{clip-path:url(#SVGID_00000114073332596023563160000013601426956834938244_);fill-rule:evenodd;clip-rule:evenodd;fill:#1F90C9;}
	
		.st79{clip-path:url(#SVGID_00000114073332596023563160000013601426956834938244_);fill-rule:evenodd;clip-rule:evenodd;fill:#1E91C8;}
	
		.st80{clip-path:url(#SVGID_00000114073332596023563160000013601426956834938244_);fill-rule:evenodd;clip-rule:evenodd;fill:#1D8FC8;}
	
		.st81{clip-path:url(#SVGID_00000114073332596023563160000013601426956834938244_);fill-rule:evenodd;clip-rule:evenodd;fill:#1B8EC8;}
	
		.st82{clip-path:url(#SVGID_00000114073332596023563160000013601426956834938244_);fill-rule:evenodd;clip-rule:evenodd;fill:#1F8DC6;}
	
		.st83{clip-path:url(#SVGID_00000114073332596023563160000013601426956834938244_);fill-rule:evenodd;clip-rule:evenodd;fill:#208CC6;}
	
		.st84{clip-path:url(#SVGID_00000114073332596023563160000013601426956834938244_);fill-rule:evenodd;clip-rule:evenodd;fill:#218CC5;}
	
		.st85{clip-path:url(#SVGID_00000114073332596023563160000013601426956834938244_);fill-rule:evenodd;clip-rule:evenodd;fill:#238BC5;}
	
		.st86{clip-path:url(#SVGID_00000114073332596023563160000013601426956834938244_);fill-rule:evenodd;clip-rule:evenodd;fill:#1F8AC4;}
	
		.st87{clip-path:url(#SVGID_00000114073332596023563160000013601426956834938244_);fill-rule:evenodd;clip-rule:evenodd;fill:#1D8AC3;}
	
		.st88{clip-path:url(#SVGID_00000114073332596023563160000013601426956834938244_);fill-rule:evenodd;clip-rule:evenodd;fill:#1C88C3;}
	
		.st89{clip-path:url(#SVGID_00000114073332596023563160000013601426956834938244_);fill-rule:evenodd;clip-rule:evenodd;fill:#1E88C2;}
	
		.st90{clip-path:url(#SVGID_00000114073332596023563160000013601426956834938244_);fill-rule:evenodd;clip-rule:evenodd;fill:#1D88C3;}
	
		.st91{clip-path:url(#SVGID_00000114073332596023563160000013601426956834938244_);fill-rule:evenodd;clip-rule:evenodd;fill:#1A86C1;}
	
		.st92{clip-path:url(#SVGID_00000114073332596023563160000013601426956834938244_);fill-rule:evenodd;clip-rule:evenodd;fill:#1A85C0;}
	
		.st93{clip-path:url(#SVGID_00000114073332596023563160000013601426956834938244_);fill-rule:evenodd;clip-rule:evenodd;fill:#1685C0;}
	
		.st94{clip-path:url(#SVGID_00000114073332596023563160000013601426956834938244_);fill-rule:evenodd;clip-rule:evenodd;fill:#1B83BE;}
	
		.st95{clip-path:url(#SVGID_00000114073332596023563160000013601426956834938244_);fill-rule:evenodd;clip-rule:evenodd;fill:#1C83BF;}
	
		.st96{clip-path:url(#SVGID_00000114073332596023563160000013601426956834938244_);fill-rule:evenodd;clip-rule:evenodd;fill:#1D83BE;}
	
		.st97{clip-path:url(#SVGID_00000114073332596023563160000013601426956834938244_);fill-rule:evenodd;clip-rule:evenodd;fill:#1A81BD;}
	
		.st98{clip-path:url(#SVGID_00000114073332596023563160000013601426956834938244_);fill-rule:evenodd;clip-rule:evenodd;fill:#1780BD;}
	
		.st99{clip-path:url(#SVGID_00000114073332596023563160000013601426956834938244_);fill-rule:evenodd;clip-rule:evenodd;fill:#1780BB;}
	
		.st100{clip-path:url(#SVGID_00000114073332596023563160000013601426956834938244_);fill-rule:evenodd;clip-rule:evenodd;fill:#1880BA;}
	
		.st101{clip-path:url(#SVGID_00000114073332596023563160000013601426956834938244_);fill-rule:evenodd;clip-rule:evenodd;fill:#1A7FBB;}
	
		.st102{clip-path:url(#SVGID_00000114073332596023563160000013601426956834938244_);fill-rule:evenodd;clip-rule:evenodd;fill:#1D7EBA;}
	
		.st103{clip-path:url(#SVGID_00000114073332596023563160000013601426956834938244_);fill-rule:evenodd;clip-rule:evenodd;fill:#187EB8;}
	
		.st104{clip-path:url(#SVGID_00000114073332596023563160000013601426956834938244_);fill-rule:evenodd;clip-rule:evenodd;fill:#157DB9;}
	
		.st105{clip-path:url(#SVGID_00000114073332596023563160000013601426956834938244_);fill-rule:evenodd;clip-rule:evenodd;fill:#167DB8;}
	
		.st106{clip-path:url(#SVGID_00000114073332596023563160000013601426956834938244_);fill-rule:evenodd;clip-rule:evenodd;fill:#157BB8;}
	
		.st107{clip-path:url(#SVGID_00000114073332596023563160000013601426956834938244_);fill-rule:evenodd;clip-rule:evenodd;fill:#177BB6;}
	
		.st108{clip-path:url(#SVGID_00000114073332596023563160000013601426956834938244_);fill-rule:evenodd;clip-rule:evenodd;fill:#187BB7;}
	
		.st109{clip-path:url(#SVGID_00000114073332596023563160000013601426956834938244_);fill-rule:evenodd;clip-rule:evenodd;fill:#1479B5;}
	
		.st110{clip-path:url(#SVGID_00000114073332596023563160000013601426956834938244_);fill-rule:evenodd;clip-rule:evenodd;fill:#1579B6;}
	
		.st111{clip-path:url(#SVGID_00000114073332596023563160000013601426956834938244_);fill-rule:evenodd;clip-rule:evenodd;fill:#1679B5;}
	
		.st112{clip-path:url(#SVGID_00000114073332596023563160000013601426956834938244_);fill-rule:evenodd;clip-rule:evenodd;fill:#1578B4;}
	
		.st113{clip-path:url(#SVGID_00000114073332596023563160000013601426956834938244_);fill-rule:evenodd;clip-rule:evenodd;fill:#1277B3;}
	
		.st114{clip-path:url(#SVGID_00000114073332596023563160000013601426956834938244_);fill-rule:evenodd;clip-rule:evenodd;fill:#1477B4;}
	
		.st115{clip-path:url(#SVGID_00000114073332596023563160000013601426956834938244_);fill-rule:evenodd;clip-rule:evenodd;fill:#1776B2;}
	
		.st116{clip-path:url(#SVGID_00000114073332596023563160000013601426956834938244_);fill-rule:evenodd;clip-rule:evenodd;fill:#1274B2;}
	
		.st117{clip-path:url(#SVGID_00000114073332596023563160000013601426956834938244_);fill-rule:evenodd;clip-rule:evenodd;fill:#1374B1;}
	
		.st118{clip-path:url(#SVGID_00000114073332596023563160000013601426956834938244_);fill-rule:evenodd;clip-rule:evenodd;fill:#1173B2;}
	
		.st119{clip-path:url(#SVGID_00000114073332596023563160000013601426956834938244_);fill-rule:evenodd;clip-rule:evenodd;fill:#0E74B1;}
	
		.st120{clip-path:url(#SVGID_00000114073332596023563160000013601426956834938244_);fill-rule:evenodd;clip-rule:evenodd;fill:#0F73B1;}
	
		.st121{clip-path:url(#SVGID_00000114073332596023563160000013601426956834938244_);fill-rule:evenodd;clip-rule:evenodd;fill:#1172B0;}
	
		.st122{clip-path:url(#SVGID_00000114073332596023563160000013601426956834938244_);fill-rule:evenodd;clip-rule:evenodd;fill:#0D71AF;}
	
		.st123{clip-path:url(#SVGID_00000114073332596023563160000013601426956834938244_);fill-rule:evenodd;clip-rule:evenodd;fill:#0F70AF;}
	
		.st124{clip-path:url(#SVGID_00000114073332596023563160000013601426956834938244_);fill-rule:evenodd;clip-rule:evenodd;fill:#0F6FAE;}
	
		.st125{clip-path:url(#SVGID_00000114073332596023563160000013601426956834938244_);fill-rule:evenodd;clip-rule:evenodd;fill:#106FAE;}
	
		.st126{clip-path:url(#SVGID_00000114073332596023563160000013601426956834938244_);fill-rule:evenodd;clip-rule:evenodd;fill:#0D6EAD;}
	
		.st127{clip-path:url(#SVGID_00000114073332596023563160000013601426956834938244_);fill-rule:evenodd;clip-rule:evenodd;fill:#0E6EAC;}
	
		.st128{clip-path:url(#SVGID_00000114073332596023563160000013601426956834938244_);fill-rule:evenodd;clip-rule:evenodd;fill:#126DAC;}
	
		.st129{clip-path:url(#SVGID_00000114073332596023563160000013601426956834938244_);fill-rule:evenodd;clip-rule:evenodd;fill:#0B6CAC;}
	
		.st130{clip-path:url(#SVGID_00000114073332596023563160000013601426956834938244_);fill-rule:evenodd;clip-rule:evenodd;fill:#0B6BAA;}
	
		.st131{clip-path:url(#SVGID_00000114073332596023563160000013601426956834938244_);fill-rule:evenodd;clip-rule:evenodd;fill:#0E6AAB;}
	
		.st132{clip-path:url(#SVGID_00000114073332596023563160000013601426956834938244_);fill-rule:evenodd;clip-rule:evenodd;fill:#0F6AAA;}
	
		.st133{clip-path:url(#SVGID_00000114073332596023563160000013601426956834938244_);fill-rule:evenodd;clip-rule:evenodd;fill:#0D69AA;}
	
		.st134{clip-path:url(#SVGID_00000114073332596023563160000013601426956834938244_);fill-rule:evenodd;clip-rule:evenodd;fill:#1168A8;}
	
		.st135{clip-path:url(#SVGID_00000114073332596023563160000013601426956834938244_);fill-rule:evenodd;clip-rule:evenodd;fill:#0B67A8;}
	
		.st136{clip-path:url(#SVGID_00000114073332596023563160000013601426956834938244_);fill-rule:evenodd;clip-rule:evenodd;fill:#0966A8;}
	
		.st137{clip-path:url(#SVGID_00000114073332596023563160000013601426956834938244_);fill-rule:evenodd;clip-rule:evenodd;fill:#0A66A7;}
	
		.st138{clip-path:url(#SVGID_00000114073332596023563160000013601426956834938244_);fill-rule:evenodd;clip-rule:evenodd;fill:#0865A6;}
	
		.st139{clip-path:url(#SVGID_00000114073332596023563160000013601426956834938244_);fill-rule:evenodd;clip-rule:evenodd;fill:#0D64A5;}
	
		.st140{clip-path:url(#SVGID_00000114073332596023563160000013601426956834938244_);fill-rule:evenodd;clip-rule:evenodd;fill:#0663A5;}
	
		.st141{clip-path:url(#SVGID_00000114073332596023563160000013601426956834938244_);fill-rule:evenodd;clip-rule:evenodd;fill:#0A62A5;}
	
		.st142{clip-path:url(#SVGID_00000114073332596023563160000013601426956834938244_);fill-rule:evenodd;clip-rule:evenodd;fill:#0B62A4;}
	
		.st143{clip-path:url(#SVGID_00000114073332596023563160000013601426956834938244_);fill-rule:evenodd;clip-rule:evenodd;fill:#0B61A4;}
	
		.st144{clip-path:url(#SVGID_00000114073332596023563160000013601426956834938244_);fill-rule:evenodd;clip-rule:evenodd;fill:#0A61A3;}
	
		.st145{clip-path:url(#SVGID_00000114073332596023563160000013601426956834938244_);fill-rule:evenodd;clip-rule:evenodd;fill:#0860A3;}
	
		.st146{clip-path:url(#SVGID_00000114073332596023563160000013601426956834938244_);fill-rule:evenodd;clip-rule:evenodd;fill:#0D5FA2;}
	
		.st147{clip-path:url(#SVGID_00000114073332596023563160000013601426956834938244_);fill-rule:evenodd;clip-rule:evenodd;fill:#065EA2;}
	
		.st148{clip-path:url(#SVGID_00000114073332596023563160000013601426956834938244_);fill-rule:evenodd;clip-rule:evenodd;fill:#065EA1;}
	
		.st149{clip-path:url(#SVGID_00000114073332596023563160000013601426956834938244_);fill-rule:evenodd;clip-rule:evenodd;fill:#055DA1;}
	
		.st150{clip-path:url(#SVGID_00000114073332596023563160000013601426956834938244_);fill-rule:evenodd;clip-rule:evenodd;fill:#065C9E;}
	
		.st151{clip-path:url(#SVGID_00000114073332596023563160000013601426956834938244_);fill-rule:evenodd;clip-rule:evenodd;fill:#045B9E;}
	
		.st152{clip-path:url(#SVGID_00000114073332596023563160000013601426956834938244_);fill-rule:evenodd;clip-rule:evenodd;fill:#065B9D;}
	
		.st153{clip-path:url(#SVGID_00000114073332596023563160000013601426956834938244_);fill-rule:evenodd;clip-rule:evenodd;fill:#095A9E;}
	
		.st154{clip-path:url(#SVGID_00000114073332596023563160000013601426956834938244_);fill-rule:evenodd;clip-rule:evenodd;fill:#04599C;}
	
		.st155{clip-path:url(#SVGID_00000114073332596023563160000013601426956834938244_);fill-rule:evenodd;clip-rule:evenodd;fill:#03589B;}
	
		.st156{clip-path:url(#SVGID_00000114073332596023563160000013601426956834938244_);fill-rule:evenodd;clip-rule:evenodd;fill:#02579B;}
	
		.st157{clip-path:url(#SVGID_00000114073332596023563160000013601426956834938244_);fill-rule:evenodd;clip-rule:evenodd;fill:#01589A;}
	
		.st158{clip-path:url(#SVGID_00000114073332596023563160000013601426956834938244_);fill-rule:evenodd;clip-rule:evenodd;fill:#06569A;}
	
		.st159{clip-path:url(#SVGID_00000114073332596023563160000013601426956834938244_);fill-rule:evenodd;clip-rule:evenodd;fill:#03579A;}
	
		.st160{clip-path:url(#SVGID_00000114073332596023563160000013601426956834938244_);fill-rule:evenodd;clip-rule:evenodd;fill:#08569A;}
	
		.st161{clip-path:url(#SVGID_00000114073332596023563160000013601426956834938244_);fill-rule:evenodd;clip-rule:evenodd;fill:#025599;}
	
		.st162{clip-path:url(#SVGID_00000114073332596023563160000013601426956834938244_);fill-rule:evenodd;clip-rule:evenodd;fill:#045498;}
	
		.st163{clip-path:url(#SVGID_00000114073332596023563160000013601426956834938244_);fill-rule:evenodd;clip-rule:evenodd;fill:#035497;}
	
		.st164{clip-path:url(#SVGID_00000114073332596023563160000013601426956834938244_);fill-rule:evenodd;clip-rule:evenodd;fill:#035396;}
	
		.st165{clip-path:url(#SVGID_00000114073332596023563160000013601426956834938244_);fill-rule:evenodd;clip-rule:evenodd;fill:#035395;}
	
		.st166{clip-path:url(#SVGID_00000114073332596023563160000013601426956834938244_);fill-rule:evenodd;clip-rule:evenodd;fill:#075295;}
	
		.st167{clip-path:url(#SVGID_00000114073332596023563160000013601426956834938244_);fill-rule:evenodd;clip-rule:evenodd;fill:#025194;}
	
		.st168{clip-path:url(#SVGID_00000114073332596023563160000013601426956834938244_);fill-rule:evenodd;clip-rule:evenodd;fill:#015093;}
	
		.st169{clip-path:url(#SVGID_00000114073332596023563160000013601426956834938244_);fill-rule:evenodd;clip-rule:evenodd;fill:#064F93;}
	
		.st170{clip-path:url(#SVGID_00000114073332596023563160000013601426956834938244_);fill-rule:evenodd;clip-rule:evenodd;fill:#054F92;}
	
		.st171{clip-path:url(#SVGID_00000114073332596023563160000013601426956834938244_);fill-rule:evenodd;clip-rule:evenodd;fill:#094F92;}
	
		.st172{clip-path:url(#SVGID_00000114073332596023563160000013601426956834938244_);fill-rule:evenodd;clip-rule:evenodd;fill:#0D4D90;}
	
		.st173{clip-path:url(#SVGID_00000114073332596023563160000013601426956834938244_);fill-rule:evenodd;clip-rule:evenodd;fill:#0E4D90;}
	
		.st174{clip-path:url(#SVGID_00000114073332596023563160000013601426956834938244_);fill-rule:evenodd;clip-rule:evenodd;fill:#104C90;}
	
		.st175{clip-path:url(#SVGID_00000114073332596023563160000013601426956834938244_);fill-rule:evenodd;clip-rule:evenodd;fill:#104C8F;}
	
		.st176{clip-path:url(#SVGID_00000114073332596023563160000013601426956834938244_);fill-rule:evenodd;clip-rule:evenodd;fill:#124B8F;}
	
		.st177{clip-path:url(#SVGID_00000114073332596023563160000013601426956834938244_);fill-rule:evenodd;clip-rule:evenodd;fill:#154A8D;}
	
		.st178{clip-path:url(#SVGID_00000114073332596023563160000013601426956834938244_);fill-rule:evenodd;clip-rule:evenodd;fill:#144B8E;}
	
		.st179{clip-path:url(#SVGID_00000114073332596023563160000013601426956834938244_);fill-rule:evenodd;clip-rule:evenodd;fill:#154A8C;}
	.st180{fill:#005C9E;}
	.st181{fill:#FFFFFF;}
	.st182{fill:#0A62A5;}
	.st183{fill-rule:evenodd;clip-rule:evenodd;fill:#0A62A5;}
	.st184{fill-rule:evenodd;clip-rule:evenodd;fill:#FFFFFF;}
</style>
<g id="BACKGROUND">
</g>
<g id="OBJECTS">
</g>
<g id="TEXT">
</g>
<g id="LIGHTS">
	<g>
		<g id="XMLID_00000104682635450349641520000004113346733084505769_">
			<path id="XMLID_00000175318339919899422830000017650533125114973873_" class="st180" d="M673.86,498.34
				c-65.24,0-121.59,27.28-148.05,66.8c35.37-35.37,87.96-54.99,148.05-54.99s114.37,21.31,148.05,54.99
				C795.45,525.63,739.11,498.34,673.86,498.34z"/>
			<path id="XMLID_00000085229017797443074070000006759208411008380300_" class="st180" d="M604.15,484.1
				c0.16,0.18,0.38,0.28,0.61,0.28c0.05,0,0.1,0,0.16-0.02c2.95-0.58,5.91-1.33,8.78-2.24c0.43-0.13,0.66-0.59,0.53-1.01
				c-0.13-0.43-0.59-0.66-1.01-0.53c-2.34,0.74-4.73,1.37-7.13,1.89c1.01-2.28,2.4-4.41,4.09-6.23c0.22-0.23,0.28-0.57,0.15-0.86
				c-0.12-0.29-0.41-0.49-0.72-0.49c-2.29-0.06-4.62,0.38-6.74,1.27c-0.41,0.17-0.61,0.65-0.43,1.06c0.17,0.41,0.65,0.6,1.06,0.43
				c1.36-0.57,2.81-0.93,4.28-1.08c-1.6,2.02-2.88,4.32-3.76,6.73C603.91,483.57,603.96,483.88,604.15,484.1z"/>
			<path id="XMLID_00000183964509250670407180000003390250204105216170_" class="st180" d="M566.49,521.02
				c0.33-1.53,0.33-3.13-0.06-4.7c-0.57-2.31-0.92-4.69-1.12-7.04c-0.31-3.71-0.3-7.45-0.41-11.18c0.1-3.73,0.1-7.47,0.41-11.18
				c0.19-2.34,0.55-4.72,1.12-7.04c0.82-3.3-0.04-6.79-2.29-9.35l-0.06-0.07c-1.52-1.72-1.67-4.28-0.31-6.18
				c1.17-1.63,3.24-2.36,5.2-1.93l6.01,1.33c1.78,0.39,3.64,0.32,5.37-0.24c4.68-1.51,9.96-1.51,14.86-0.64
				c1.6,0.28,3.19,0.65,4.76,1.06c11.02,2.92,22.62,2.92,33.64,0c1.57-0.42,3.15-0.78,4.76-1.06c4.9-0.87,10.18-0.86,14.86,0.64
				c1.74,0.56,3.59,0.63,5.37,0.24l6.11-1.35c2.24-0.5,4.56,0.61,5.56,2.72c0.86,1.81,0.5,3.98-0.83,5.49h0
				c-2.25,2.55-3.11,6.04-2.29,9.35c0.57,2.31,0.92,4.69,1.12,7.04c0.15,1.83,0.23,3.67,0.28,5.51c1.75-0.04,3.51-0.06,5.27-0.06
				c1.76,0,3.52,0.02,5.27,0.06c0.05-1.84,0.13-3.68,0.28-5.51c0.19-2.34,0.55-4.72,1.12-7.04c0.82-3.3-0.04-6.79-2.29-9.35
				l-0.06-0.07c-1.52-1.72-1.67-4.28-0.31-6.18c1.17-1.63,3.24-2.36,5.2-1.93l6.01,1.33c1.78,0.39,3.64,0.32,5.37-0.24
				c4.68-1.51,9.96-1.51,14.86-0.64c1.6,0.28,3.19,0.65,4.76,1.06c11.02,2.92,22.62,2.92,33.64,0c1.57-0.42,3.15-0.78,4.76-1.06
				c4.9-0.87,10.18-0.86,14.86,0.64c1.74,0.56,3.59,0.63,5.37,0.24l6.11-1.35c2.24-0.5,4.56,0.61,5.56,2.72
				c0.86,1.81,0.5,3.98-0.83,5.49l0,0c-2.25,2.55-3.11,6.04-2.29,9.35c0.57,2.31,0.92,4.69,1.12,7.04c0.31,3.71,0.3,7.45,0.41,11.18
				c-0.1,3.73-0.1,7.47-0.41,11.18c-0.19,2.34-0.55,4.72-1.12,7.04c-0.39,1.56-0.39,3.17-0.06,4.7c4.68,2.9,9.12,5.99,13.32,9.25
				c18.38-77.04-40-152.49-120.65-152.49h0h0c-80.65,0-139.03,75.45-120.65,152.49C557.37,527.01,561.81,523.92,566.49,521.02z
				 M675.02,443.79c-2.87,0.91-5.82,1.66-8.78,2.24c-0.05,0.01-0.1,0.02-0.16,0.02c-0.23,0-0.46-0.1-0.61-0.28
				c-0.19-0.22-0.24-0.53-0.15-0.8c0.88-2.41,2.16-4.7,3.76-6.73c-1.47,0.14-2.92,0.51-4.28,1.08c-0.41,0.17-0.89-0.02-1.06-0.43
				c-0.17-0.41,0.02-0.89,0.43-1.06c2.11-0.89,4.44-1.33,6.74-1.27c0.32,0.01,0.6,0.2,0.72,0.49c0.12,0.29,0.06,0.63-0.15,0.86
				c-1.69,1.82-3.08,3.95-4.09,6.23c2.4-0.52,4.8-1.15,7.13-1.89c0.43-0.13,0.88,0.1,1.01,0.53
				C675.68,443.2,675.44,443.65,675.02,443.79z M662.56,399.39c6.71-2.82,14.1-4.22,21.38-4.03c0.41,0.01,0.77,0.26,0.93,0.63
				s0.08,0.81-0.2,1.11c-6.33,6.83-11.45,14.99-14.86,23.67c8.91-1.81,17.81-4.12,26.47-6.85c0.55-0.17,1.13,0.13,1.3,0.68
				c0.17,0.55-0.13,1.13-0.68,1.3c-9.33,2.95-18.93,5.4-28.53,7.28c-0.07,0.01-0.13,0.02-0.2,0.02c-0.3,0-0.59-0.13-0.79-0.36
				c-0.24-0.28-0.31-0.68-0.19-1.03c3.22-8.86,8.17-17.25,14.38-24.38c-6.23,0.14-12.49,1.46-18.22,3.87
				c-0.53,0.22-1.14-0.03-1.36-0.55C661.79,400.22,662.04,399.61,662.56,399.39z M632.92,412.84c2.11-0.89,4.44-1.33,6.74-1.27
				c0.32,0.01,0.6,0.2,0.72,0.49c0.12,0.29,0.06,0.63-0.15,0.86c-1.69,1.82-3.08,3.95-4.09,6.23c2.4-0.52,4.8-1.15,7.13-1.89
				c0.43-0.13,0.88,0.1,1.01,0.53c0.13,0.43-0.1,0.88-0.53,1.01c-2.87,0.91-5.82,1.66-8.78,2.24c-0.05,0.01-0.1,0.02-0.16,0.02
				c-0.23,0-0.46-0.1-0.61-0.28c-0.19-0.22-0.24-0.53-0.15-0.8c0.88-2.41,2.16-4.7,3.76-6.73c-1.47,0.14-2.92,0.51-4.28,1.08
				c-0.41,0.17-0.89-0.02-1.06-0.43C632.32,413.49,632.51,413.01,632.92,412.84z M617.87,437.73c4.44-1.87,9.34-2.79,14.16-2.67
				c0.41,0.01,0.77,0.26,0.93,0.63c0.16,0.38,0.08,0.81-0.2,1.11c-3.97,4.28-7.2,9.36-9.42,14.79c5.61-1.16,11.21-2.62,16.66-4.35
				c0.55-0.17,1.13,0.13,1.3,0.68s-0.13,1.13-0.68,1.3c-6.13,1.94-12.43,3.54-18.74,4.78c-0.07,0.01-0.13,0.02-0.2,0.02
				c-0.3,0-0.59-0.13-0.79-0.36c-0.24-0.28-0.31-0.68-0.19-1.03c2.03-5.59,5.11-10.9,8.96-15.47c-3.77,0.18-7.53,1.02-11,2.48
				c-0.53,0.22-1.14-0.03-1.36-0.55C617.1,438.56,617.35,437.95,617.87,437.73z"/>
		</g>
		<g>
			<path class="st182" d="M149.04,515.12V384.99c0-8.02,4.99-13.23,13.45-13.23h14.1c9.11,0,12.36,2.17,16.48,10.41l26.03,52.27
				l26.03-52.27c4.12-8.46,7.37-10.41,16.48-10.41h13.01c8.24,0,13.45,5.21,13.45,13.23v130.13c0,5.21-3.25,8.46-8.46,8.46h-14.97
				c-5.21,0-8.46-3.25-8.46-8.46v-91.96l-26.24,51.84c-3.25,6.29-5.86,8.68-11.71,8.68c-4.99,0-8.02-2.39-11.28-8.68l-26.03-51.4
				v91.53c0,5.21-3.25,8.46-8.46,8.46h-15.18C152.29,523.58,149.04,520.32,149.04,515.12z"/>
			<path class="st182" d="M320.17,515.55v-69.4l-7.16-7.38c-5.21-5.21-5.64-12.15-0.43-17.13l6.72-6.51
				c5.21-5.21,11.93-4.99,17.13,0.22l11.5,11.5c5.21-9.54,13.45-14.96,24.07-14.96h2.82c9.76,0,14.96,4.55,14.96,12.58v7.16
				c0,7.59-4.99,12.15-13.01,12.15H372c-11.28,0-16.92,6.07-16.92,17.79v54.01c0,4.99-3.04,8.02-8.02,8.02h-18.87
				C323.2,523.58,320.17,520.54,320.17,515.55z"/>
			<path class="st182" d="M387.4,498.63c0-8.24,3.9-12.58,13.23-12.58h11.71c9.33,0,13.45,4.34,13.45,12.58v13.45
				c0,8.24-4.12,12.58-13.45,12.58h-11.71c-9.33,0-13.23-4.34-13.23-12.58V498.63z"/>
		</g>
		<g>
			<path class="st182" d="M156.44,686.13V555.99c0-8.02,4.99-13.23,13.45-13.23h14.1c9.11,0,12.36,2.17,16.48,10.41l26.03,52.27
				l26.03-52.27c4.12-8.46,7.37-10.41,16.48-10.41h13.01c8.24,0,13.45,5.21,13.45,13.23v130.13c0,5.21-3.25,8.46-8.46,8.46h-14.97
				c-5.21,0-8.46-3.25-8.46-8.46v-91.96L237.34,646c-3.25,6.29-5.86,8.68-11.71,8.68c-4.99,0-8.02-2.39-11.28-8.68l-26.03-51.4
				v91.53c0,5.21-3.25,8.46-8.46,8.46h-15.18C159.69,694.58,156.44,691.33,156.44,686.13z"/>
			<path class="st182" d="M318.46,664.65v-2.82c0-21.91,13.88-32.53,44.03-32.53c8.46,0,16.05,0.87,22.77,2.6v-14.75
				c0-8.03-4.55-11.5-15.18-11.5c-10.41,0-14.97,2.82-14.97,9.33v1.52c0,2.6-1.3,4.12-4.12,4.12h-23.86c-3.04,0-4.55-1.74-4.55-4.77
				v-1.74c0-21.04,16.7-32.53,47.5-32.53c32.1,0,49.67,12.8,49.67,36.44v43.81l7.16,7.16c5.21,5.21,5.64,11.93,0.43,17.13
				l-6.72,6.72c-5.21,5.21-11.71,4.77-16.92-0.43l-9.54-9.54c-6.94,8.89-18.44,14.31-33.4,14.31
				C334.51,697.19,318.46,685.47,318.46,664.65z M368.13,673.55c10.19,0,17.13-5.64,17.13-13.45v-9.76
				c-5.21-1.3-10.63-2.17-16.27-2.17c-11.28,0-16.7,4.12-16.7,11.71v2.17C352.29,669.64,357.72,673.55,368.13,673.55z"/>
			<path class="st182" d="M453.8,661.83V610h-11.28c-3.47,0-5.86-2.39-5.86-5.64v-14.53c0-3.25,2.39-5.64,5.86-5.64h11.28v-17.35
				c0-7.59,4.55-12.15,11.71-12.15h11.28c7.16,0,11.71,4.55,11.71,12.15v17.35h17.57c3.47,0,5.86,2.39,5.86,5.64v14.53
				c0,3.25-2.39,5.64-5.86,5.64h-17.35v49.88c0,5.86,2.17,8.02,8.02,8.02h9.33c3.47,0,5.86,2.17,5.86,5.86v14.1
				c0,4.34-2.17,6.72-6.29,6.72h-16.05C463.13,694.58,453.8,685.04,453.8,661.83z"/>
			<path class="st182" d="M525.16,654.89v-29.28c0-28.63,19.52-44.03,52.92-44.03c33.62,0,51.4,14.53,51.4,42.51v15.4
				c0,6.72-3.04,9.98-9.54,9.98h-60.08v9.11c0,10.63,5.42,15.4,19.3,15.4c10.84,0,16.05-3.25,16.05-9.54v-0.87
				c0-2.6,0.87-3.69,3.69-3.69h24.94c2.6,0,4.12,1.52,4.12,4.34v1.74c0,20.6-17.13,31.23-48.8,31.23
				C544.68,697.19,525.16,682.66,525.16,654.89z M559.86,620.19v8.24h36.44v-8.24c0-10.41-6.29-15.83-18.44-15.83
				S559.86,609.78,559.86,620.19z"/>
			<path class="st182" d="M652.04,665.52V553.39c0-7.59,4.99-12.58,12.58-12.58h9.98c7.59,0,12.58,4.99,12.58,12.58V662.7
				c0,4.12,1.3,5.64,4.99,5.64h6.94c3.25,0,5.64,2.17,5.64,5.64v13.01c0,4.99-2.6,7.59-7.81,7.59h-13.01
				C659.85,694.58,652.04,685.47,652.04,665.52z"/>
			<path class="st182" d="M715.15,664.65v-2.82c0-21.91,13.88-32.53,44.03-32.53c8.46,0,16.05,0.87,22.77,2.6v-14.75
				c0-8.03-4.55-11.5-15.18-11.5c-10.41,0-14.97,2.82-14.97,9.33v1.52c0,2.6-1.3,4.12-4.12,4.12h-23.86c-3.04,0-4.55-1.74-4.55-4.77
				v-1.74c0-21.04,16.7-32.53,47.5-32.53c32.1,0,49.67,12.8,49.67,36.44v43.81l7.16,7.16c5.21,5.21,5.64,11.93,0.43,17.13
				l-6.72,6.72c-5.21,5.21-11.71,4.77-16.92-0.43l-9.54-9.54c-6.94,8.89-18.44,14.31-33.4,14.31
				C731.2,697.19,715.15,685.47,715.15,664.65z M764.82,673.55c10.19,0,17.13-5.64,17.13-13.45v-9.76
				c-5.21-1.3-10.63-2.17-16.27-2.17c-11.28,0-16.7,4.12-16.7,11.71v2.17C748.99,669.64,754.41,673.55,764.82,673.55z"/>
			<path class="st182" d="M840.52,665.52V664c0-2.82,1.95-4.55,4.55-4.55h21.91c2.6,0,4.12,1.3,4.12,4.12v0.87
				c0,6.72,4.99,9.76,18.44,9.76c11.71,0,17.35-3.47,17.35-10.19v-1.95c0-5.21-2.39-7.16-7.81-7.81l-27.98-3.9
				c-23.64-3.25-31.02-12.58-31.02-31.02v-1.73c0-22.12,16.27-36,49.02-36c32.97,0,47.71,10.41,47.71,31.45v1.08
				c0,2.82-1.95,4.55-4.55,4.55h-21.69c-2.82,0-4.34-1.3-4.34-3.9v-0.87c0-6.51-4.55-9.33-17.13-9.33
				c-11.93,0-16.92,3.04-16.92,9.76v1.74c0,5.21,2.39,7.16,8.03,8.03l27.98,3.9c23.64,3.25,30.8,12.58,30.8,30.58v2.39
				c0,22.12-16.7,36.22-49.45,36.22C855.7,697.19,840.52,686.78,840.52,665.52z"/>
		</g>
	</g>
</g>
</svg>
